<svg xmlns="http://www.w3.org/2000/svg" xmlns:xlink="http://www.w3.org/1999/xlink" version="1.1" width="1000" height="1000" viewBox="0 0 1000 1000" xml:space="preserve">
<desc>Created with Fabric.js 3.5.0</desc>
<defs>
</defs>
<rect x="0" y="0" width="100%" height="100%" fill="rgba(255,255,255,0)"/>
<g transform="matrix(5.5135 0 0 5.5135 499.9966 499.9965)" id="176017">
<path style="stroke: none; stroke-width: 1; stroke-dasharray: none; stroke-linecap: butt; stroke-dashoffset: 0; stroke-linejoin: miter; stroke-miterlimit: 4; is-custom-font: none; font-file-url: none; fill: rgb(255,255,255); fill-rule: nonzero; opacity: 1;" vector-effect="non-scaling-stroke" transform=" translate(-100, -99.9984)" d="M 168.5 63.44 l -50 -39.5 a 30 30 0 0 0 -37 0 l -50 39.5 A 29.83 29.83 0 0 0 20 86.94 v 75.5 a 20.06 20.06 0 0 0 20 20 H 68.5 a 20.06 20.06 0 0 0 20 -20 v -37.5 H 116 v 37.5 a 20.06 20.06 0 0 0 20 20 h 24 a 20.06 20.06 0 0 0 20 -20 V 86.94 a 29.83 29.83 0 0 0 -11.5 -23.5 Z m -8.5 99 H 136 v -37.5 a 20.06 20.06 0 0 0 -20 -20 H 88.5 a 20.06 20.06 0 0 0 -20 20 v 37.5 H 40 V 86.94 a 10.44 10.44 0 0 1 4 -8 l 50 -39.5 c 3.5 -3 8.5 -3 12.5 0 l 50 39.5 a 10.44 10.44 0 0 1 4 8 v 75.5 Z" stroke-linecap="round"/>
</g>
</svg>