<svg xmlns="http://www.w3.org/2000/svg" xmlns:xlink="http://www.w3.org/1999/xlink" version="1.1" width="1000" height="1000" viewBox="0 0 1000 1000" xml:space="preserve">
<desc>Created with Fabric.js 3.5.0</desc>
<defs>
</defs>
<rect x="0" y="0" width="100%" height="100%" fill="rgba(255,255,255,0)"/>
<g transform="matrix(9.4697 0 0 9.4697 480.5557 500.0001)" id="292180">
<g style="" vector-effect="non-scaling-stroke">
		<g transform="matrix(1 0 0 1 -12 0.0119)">
<path style="stroke: none; stroke-width: 1; stroke-dasharray: none; stroke-linecap: butt; stroke-dashoffset: 0; stroke-linejoin: miter; stroke-miterlimit: 4; is-custom-font: none; font-file-url: none; fill: rgb(255,255,255); fill-rule: nonzero; opacity: 1;" transform=" translate(-36, -48.0119)" d="M 20.4844 54 H 66 a 6 6 0 0 0 0 -12 H 20.4844 l 7.7578 -7.7578 a 5.9994 5.9994 0 0 0 -8.4844 -8.4844 l -18 18 a 5.9979 5.9979 0 0 0 0 8.4844 l 18 18 a 5.9994 5.9994 0 1 0 8.4844 -8.4844 Z" stroke-linecap="round"/>
</g>
		<g transform="matrix(1 0 0 1 18 0)">
<path style="stroke: none; stroke-width: 1; stroke-dasharray: none; stroke-linecap: butt; stroke-dashoffset: 0; stroke-linejoin: miter; stroke-miterlimit: 4; is-custom-font: none; font-file-url: none; fill: rgb(255,255,255); fill-rule: nonzero; opacity: 1;" transform=" translate(-66, -48)" d="M 90 0 H 42 a 5.9966 5.9966 0 0 0 -6 6 V 18 a 6 6 0 0 0 12 0 V 12 H 84 V 84 H 48 V 78 a 6 6 0 0 0 -12 0 V 90 a 5.9966 5.9966 0 0 0 6 6 H 90 a 5.9966 5.9966 0 0 0 6 -6 V 6 A 5.9966 5.9966 0 0 0 90 0 Z" stroke-linecap="round"/>
</g>
</g>
</g>
</svg>